<?xml version="1.0" encoding="UTF-8"?>
<svg id="Layer_1" data-name="Layer 1" xmlns="http://www.w3.org/2000/svg" version="1.1" viewBox="0 0 322.1 108.5">
  <defs>
    <style>
      .cls-1 {
        fill: #fff;
        stroke-width: 0px;
      }
    </style>
  </defs>
  <g>
    <path class="cls-1" d="M88.9,71.8c.5,1.8.8,3.8.8,6.1,0,7.1-3.3,12.5-9.8,16.3-5.4,3.1-12.9,4.6-22.3,4.6s-9.8-.8-14.9-2.5c-5.1-1.7-9.1-3.5-11.8-5.5l-4,7.8c9.4,6.2,21,9.4,34.7,9.4s20-2.4,26.8-7.1c7.9-5.4,11.8-13.4,11.8-24s-.2-3.5-.5-5.2h-10.8Z"/>
    <path class="cls-1" d="M46,38.9c-.4-.3-.8-.6-1.1-.9-2.9-2.5-4.4-6-4.4-10.6,0-12.1,9.9-18.1,29.8-18.1s12.2.9,20.1,2.6l1.9-8.8c-9.2-2.1-18.2-3.1-26.9-3.1s-20,2.6-26.1,7.9c-6.1,5.2-9.2,12.3-9.2,21.2s.9,6.9,2.6,9.8h13.3Z"/>
  </g>
  <path class="cls-1" d="M5.8,52.8h1.5c-.3-1.9-1.9-2.8-3.5-2.8s-2.4.5-3.1,1.4c-.4.5-.6,1.1-.6,1.7s0,.2,0,.3H0c.2,2.1,2,2.5,3.6,2.6,1,0,2.1.2,2.3,1,0,.1,0,.3,0,.4,0,1.1-1.2,1.7-2.3,1.7s-2.1-.5-2.2-1.4h0c0,0,0-.2,0-.2H0s0,.3,0,.3c.2,1.8,2.1,2.8,3.7,2.8s3.8-1.1,3.8-3.1,0-.5,0-.7c-.4-1.6-2.1-2-3.5-2.2-1.1,0-2.3-.2-2.3-1.4s0-.6.3-.8c.4-.5,1.2-.8,1.9-.8s1.8.4,2.1,1.3Z"/>
  <path class="cls-1" d="M19.1,50.1h-3.8v10.3h1.5v-3.4h2.3c2.2,0,3.3-1.7,3.3-3.4s-1.1-3.4-3.3-3.4ZM19.1,55.5h-2.3v-3.9h2.3c1.2,0,1.9,1,1.9,1.9s-.6,1.9-1.9,1.9Z"/>
  <path class="cls-1" d="M29.3,55.2c0,3,2.4,5.3,5.3,5.3s5.3-2.4,5.3-5.3-2.4-5.3-5.3-5.3-5.3,2.4-5.3,5.3ZM30.8,55.2c0-2.1,1.7-3.8,3.8-3.8s3.8,1.7,3.8,3.8-1.7,3.8-3.8,3.8-3.8-1.7-3.8-3.8Z"/>
  <path class="cls-1" d="M51.5,55.2h-1.7v.7l3.7,4.5h1.9l-3.2-3.9c1.8-.3,2.7-1.7,2.7-3.1s-1.1-3.4-3.3-3.4h-3.7v10.4h1.5v-8.9h2.3c1.2,0,1.9,1,1.9,1.9s-.6,1.8-1.9,1.8Z"/>
  <path class="cls-1" d="M64.4,51.4v9h1.5v-9h3.1v-1.4h-7.7v1.4h3.1Z"/>
  <path class="cls-1" d="M79.7,51.4h1.9v-1.4h-5.3v1.4h1.9v7.6h-1.9v1.4h5.3v-1.4h-1.9v-7.6Z"/>
  <path class="cls-1" d="M90.1,50.1v10.3h1.5v-7.2l5,7.2h1.2v-10.3h-1.5v7.2l-5-7.2h-1.1Z"/>
  <path class="cls-1" d="M114,53.7h1.6c-.6-2.8-3-3.8-5-3.8-2.9,0-5.1,2.2-5.1,5.3s2.2,5.3,5.1,5.3,4-1.4,4.8-3.4h0c.1-.3.2-.9.3-1.8h-5.6v1.5h3.9c-.6,1.5-2,2.2-3.3,2.2-2.1,0-3.6-1.6-3.6-3.8s1.6-3.8,3.6-3.8,2.9.6,3.4,2.3Z"/>
  <path class="cls-1" d="M132.7,55.3c0,1.4.6,2.7,1.5,3.7.9.9,2.2,1.5,3.6,1.5,2.4,0,4.3-1.6,4.8-3.9h-1.4c-.5,1.6-1.8,2.4-3.4,2.4s-2-.4-2.6-1.1c-.6-.7-1-1.6-1-2.6s.4-2,1-2.6c.6-.7,1.6-1.1,2.6-1.1,1.5,0,2.8.8,3.3,2.4h1.5c-.6-2.3-2.4-3.8-4.8-3.8s-2.7.6-3.6,1.6c-.9.9-1.4,2.2-1.4,3.7Z"/>
  <path class="cls-1" d="M156.7,58.9h-4.8v-8.8h-1.5v10.3h6.3v-1.5Z"/>
  <path class="cls-1" d="M165.3,57.8h4.2l1,2.6h1.6l-4.1-10.4h-1.1l-4.1,10.4h1.6l1-2.6ZM168.9,56.4h-3.1l1.5-4,1.5,4Z"/>
  <path class="cls-1" d="M182.4,54.6l-2.9-4.7h-1.7l3.9,6.3v4.2h1.5v-4.2l3.9-6.3h-1.8l-2.9,4.7Z"/>
  <path class="cls-1" d="M199.2,52.8h1.5c-.3-1.9-1.9-2.8-3.5-2.8s-2.4.5-3.1,1.4c-.4.5-.6,1.1-.6,1.7s0,.2,0,.3h0c.2,2.1,2,2.5,3.6,2.6,1,0,2.1.2,2.3,1,0,.1,0,.3,0,.4,0,1.1-1.2,1.7-2.3,1.7s-2.1-.5-2.2-1.4h0c0,0,0-.2,0-.2h-1.5s0,.3,0,.3c.2,1.8,2.1,2.8,3.7,2.8s3.8-1.1,3.8-3.1,0-.5,0-.7c-.4-1.6-2.1-2-3.5-2.2-1.1,0-2.3-.2-2.3-1.4s0-.6.3-.8c.4-.5,1.2-.8,1.9-.8s1.8.4,2.1,1.3Z"/>
  <path class="cls-1" d="M219.6,57.8h4.2l1,2.6h1.6l-4.1-10.4h-1.1l-4.1,10.4h1.6l1-2.6ZM223.3,56.4h-3.1l1.5-4,1.5,4Z"/>
  <path class="cls-1" d="M232.9,55.3c0,1.4.6,2.7,1.5,3.7.9.9,2.2,1.5,3.6,1.5,2.4,0,4.3-1.6,4.8-3.9h-1.4c-.5,1.6-1.8,2.4-3.4,2.4s-2-.4-2.6-1.1c-.6-.7-1-1.6-1-2.6s.4-2,1-2.6c.6-.7,1.6-1.1,2.6-1.1,1.5,0,2.8.8,3.3,2.4h1.5c-.6-2.3-2.4-3.8-4.8-3.8s-2.7.6-3.6,1.6c-.9.9-1.4,2.2-1.4,3.7Z"/>
  <path class="cls-1" d="M251.9,57.8h4.2l1,2.6h1.6l-4.1-10.4h-1.1l-4.1,10.4h1.6l1-2.6ZM255.5,56.4h-3.1l1.5-4,1.5,4Z"/>
  <path class="cls-1" d="M269.6,50h-3.7v10.3h3.7c3.4,0,5-2.6,5-5.1s-1.7-5.2-5-5.2ZM269.6,58.9h-2.2v-7.4h2.2c2.4,0,3.6,1.9,3.6,3.8s-1.2,3.6-3.6,3.6Z"/>
  <path class="cls-1" d="M288.8,58.9h-4.8v-3h4.6v-1.5h-4.6v-2.9h4.7v-1.5h-6.2v10.4h6.3v-1.5Z"/>
  <path class="cls-1" d="M296.6,60.4h1.5v-7.2l2.7,4h.8l2.7-4v7.2h1.5v-10.3h-1.2l-3.4,5-3.4-5h-1.2v10.3Z"/>
  <path class="cls-1" d="M317.4,54.6l-2.9-4.7h-1.7l3.9,6.3v4.2h1.5v-4.2l3.9-6.3h-1.8l-2.9,4.7Z"/>
  <g>
    <path class="cls-1" d="M128.9,38.9c1.8-7,4.6-12.8,8.5-17.5,7.1-8.5,16.5-12.8,28-12.8s11.2,1,16.4,3.1l.8,19.5,7.7-.5V8.5c-1.2-1.3-2.9-2.6-5.1-3.7-5.7-3.2-12.6-4.8-20.6-4.8-14.3,0-26,5.2-35,15.5-5.4,6.2-9.2,14-11.3,23.4h10.5Z"/>
    <path class="cls-1" d="M176.9,98.1c-5.9,1.3-11.8,2-17.6,2-9.1,0-16.2-2.3-21.4-6.9-5.3-4.6-8.7-11.8-10.3-21.3h-10.6c1.7,12.4,6.2,21.6,13.5,27.8,4.2,3.6,8.8,6,13.7,7.1,4.9,1.2,9.2,1.8,12.8,1.8s7.1-.2,10.4-.6c11.3-1.1,19.2-3.2,23.7-6.1l-2.1-7.5c-2.2,1.2-6.2,2.5-12.1,3.9Z"/>
  </g>
  <g>
    <polygon class="cls-1" points="238 38.9 247.2 12 256.8 38.9 266.9 38.9 252.4 .3 243.1 .3 229.1 38.9 238 38.9"/>
    <polygon class="cls-1" points="217.2 71.8 204.2 107.9 214.2 107.9 224 79.5 271.3 79.5 281.5 107.9 292.7 107.9 279.2 71.8 217.2 71.8"/>
  </g>
</svg>